<svg width="26838" height="8434" viewBox="0 0 26838 8434" fill="none" xmlns="http://www.w3.org/2000/svg">
<g filter="url(#filter0_d_1_2)">
<path d="M2.00004 550H1498V8250H2.00004V550ZM607 3718H2345C2616.33 3718 2862 3696 3082 3652C3309.33 3608 3485.33 3520 3610 3388C3742 3256 3808 3054.33 3808 2783C3808 2519 3742 2321 3610 2189C3485.33 2057 3313 1969 3093 1925C2873 1881 2623.67 1859 2345 1859H607V550H2345C2902.33 550 3408.33 616 3863 748C4325 872.667 4691.67 1100 4963 1430C5234.33 1752.67 5370 2207.33 5370 2794C5370 3036 5322.33 3285.33 5227 3542C5139 3791.33 4992.33 4007.67 4787 4191C4589 4367 4314 4462.33 3962 4477V4136C4299.33 4150.67 4607.33 4238.67 4886 4400C5164.67 4554 5384.67 4766.67 5546 5038C5707.33 5302 5788 5606.33 5788 5951C5788 6537.67 5652.33 6999.67 5381 7337C5109.67 7674.33 4743 7912.67 4281 8052C3826.33 8184 3320.33 8250 2763 8250H607V6941H2763C3034.33 6941 3280 6915.33 3500 6864C3727.33 6812.67 3903.33 6717.33 4028 6578C4160 6431.33 4226 6222.33 4226 5951C4226 5687 4160 5489 4028 5357C3903.33 5225 3727.33 5137 3500 5093C3280 5041.67 3034.33 5016 2763 5016H607V3718ZM9876.39 8426C9238.39 8426 8684.72 8290.33 8215.39 8019C7746.06 7740.33 7379.39 7355.33 7115.39 6864C6858.72 6372.67 6730.39 5811.67 6730.39 5181C6730.39 4543 6858.72 3978.33 7115.39 3487C7379.39 2995.67 7746.06 2610.67 8215.39 2332C8684.72 2053.33 9238.39 1914 9876.39 1914C10514.4 1914 11068.1 2053.33 11537.4 2332C12006.7 2610.67 12369.7 2995.67 12626.4 3487C12890.4 3978.33 13022.4 4543 13022.4 5181C13022.4 5811.67 12890.4 6372.67 12626.4 6864C12369.7 7355.33 12006.7 7740.33 11537.4 8019C11068.1 8290.33 10514.4 8426 9876.39 8426ZM9876.39 7095C10243.1 7095 10543.7 7010.67 10778.4 6842C11020.4 6673.33 11200.1 6446 11317.4 6160C11442.1 5866.67 11504.4 5540.33 11504.4 5181C11504.4 4814.33 11442.1 4484.33 11317.4 4191C11200.1 3897.67 11020.4 3666.67 10778.4 3498C10543.7 3329.33 10243.1 3245 9876.39 3245C9509.72 3245 9205.39 3329.33 8963.39 3498C8721.39 3666.67 8538.06 3897.67 8413.39 4191C8296.06 4484.33 8237.39 4814.33 8237.39 5181C8237.39 5540.33 8296.06 5866.67 8413.39 6160C8538.06 6446 8721.39 6673.33 8963.39 6842C9205.39 7010.67 9509.72 7095 9876.39 7095ZM14147.9 2090H15621.9V3047C15702.6 2849 15823.6 2665.67 15984.9 2497C16146.2 2321 16358.9 2181.67 16622.9 2079C16886.9 1969 17209.6 1914 17590.9 1914C17986.9 1914 18338.9 1994.67 18646.9 2156C18954.9 2317.33 19196.9 2585 19372.9 2959C19548.9 3325.67 19636.9 3824.33 19636.9 4455V8250H18162.9V4598C18162.9 4334 18140.9 4095.67 18096.9 3883C18052.9 3670.33 17961.2 3505.33 17821.9 3388C17682.6 3263.33 17469.9 3201 17183.9 3201C16941.9 3201 16699.9 3270.67 16457.9 3410C16215.9 3542 16014.2 3754.67 15852.9 4048C15698.9 4341.33 15621.9 4733.67 15621.9 5225V8250H14147.9V2090ZM23542.4 8426C22963.1 8426 22464.4 8290.33 22046.4 8019C21635.8 7740.33 21320.4 7355.33 21100.4 6864C20880.4 6372.67 20770.4 5811.67 20770.4 5181C20770.4 4543 20880.4 3978.33 21100.4 3487C21320.4 2995.67 21635.8 2610.67 22046.4 2332C22464.4 2053.33 22963.1 1914 23542.4 1914C23967.8 1914 24327.1 1994.67 24620.4 2156C24921.1 2310 25166.8 2537.33 25357.4 2838V7513C25174.1 7799 24935.8 8022.67 24642.4 8184C24356.4 8345.33 23989.8 8426 23542.4 8426ZM23784.4 7095C24136.4 7095 24429.8 7010.67 24664.4 6842C24899.1 6673.33 25071.4 6442.33 25181.4 6149C25298.8 5855.67 25357.4 5533 25357.4 5181C25357.4 4821.67 25298.8 4495.33 25181.4 4202C25071.4 3901.33 24899.1 3666.67 24664.4 3498C24429.8 3329.33 24136.4 3245 23784.4 3245C23461.8 3245 23186.8 3329.33 22959.4 3498C22732.1 3666.67 22559.8 3897.67 22442.4 4191C22332.4 4484.33 22277.4 4814.33 22277.4 5181C22277.4 5540.33 22332.4 5866.67 22442.4 6160C22559.8 6446 22732.1 6673.33 22959.4 6842C23186.8 7010.67 23461.8 7095 23784.4 7095ZM25357.4 8250V-0.00041151H26831.4V8250H25357.4Z" fill="white"/>
</g>
<defs>
<filter id="filter0_d_1_2" x="0" y="0" width="26837.4" height="8434" filterUnits="userSpaceOnUse" color-interpolation-filters="sRGB">
<feFlood flood-opacity="0" result="BackgroundImageFix"/>
<feColorMatrix in="SourceAlpha" type="matrix" values="0 0 0 0 0 0 0 0 0 0 0 0 0 0 0 0 0 0 127 0" result="hardAlpha"/>
<feOffset dx="2" dy="4"/>
<feGaussianBlur stdDeviation="2"/>
<feComposite in2="hardAlpha" operator="out"/>
<feColorMatrix type="matrix" values="0 0 0 0 0 0 0 0 0 0 0 0 0 0 0 0 0 0 0.25 0"/>
<feBlend mode="normal" in2="BackgroundImageFix" result="effect1_dropShadow_1_2"/>
<feBlend mode="normal" in="SourceGraphic" in2="effect1_dropShadow_1_2" result="shape"/>
</filter>
</defs>
</svg>
