<svg width="26936" height="8434" viewBox="0 0 26936 8434" fill="none" xmlns="http://www.w3.org/2000/svg">
<g filter="url(#filter0_d_1_2)">
<path d="M2.00002 550H1597V8250H2.00002V550ZM607 3674H2345C2587 3674 2810.67 3655.67 3016 3619C3228.67 3582.33 3397.33 3501.67 3522 3377C3646.67 3252.33 3709 3061.67 3709 2805C3709 2548.33 3646.67 2357.67 3522 2233C3397.33 2108.33 3228.67 2027.67 3016 1991C2810.67 1954.33 2587 1936 2345 1936H607V550H2345C2902.33 550 3408.33 616 3863 748C4325 872.667 4691.67 1100 4963 1430C5234.33 1752.67 5370 2211 5370 2805C5370 3039.67 5329.67 3285.33 5249 3542C5168.33 3791.33 5032.67 4007.67 4842 4191C4651.33 4367 4383.67 4466 4039 4488V4125C4369 4139.67 4666 4227.67 4930 4389C5201.33 4550.33 5414 4763 5568 5027C5722 5291 5799 5591.67 5799 5929C5799 6515.67 5663.33 6981.33 5392 7326C5120.67 7663.33 4754 7901.67 4292 8041C3837.33 8180.33 3331.33 8250 2774 8250H607V6864H2774C3016 6864 3239.67 6842 3445 6798C3657.67 6746.67 3826.33 6655 3951 6523C4075.67 6383.67 4138 6185.67 4138 5929C4138 5672.33 4075.67 5481.67 3951 5357C3826.33 5232.33 3657.67 5151.67 3445 5115C3239.67 5078.33 3016 5060 2774 5060H607V3674ZM9887.13 8426C9249.13 8426 8695.47 8290.33 8226.13 8019C7756.8 7740.33 7390.13 7355.33 7126.13 6864C6869.47 6372.67 6741.13 5811.67 6741.13 5181C6741.13 4543 6869.47 3978.33 7126.13 3487C7390.13 2995.67 7756.8 2610.67 8226.13 2332C8695.47 2053.33 9249.13 1914 9887.13 1914C10525.1 1914 11078.8 2053.33 11548.1 2332C12017.5 2610.67 12380.5 2995.67 12637.1 3487C12901.1 3978.33 13033.1 4543 13033.1 5181C13033.1 5811.67 12901.1 6372.67 12637.1 6864C12380.5 7355.33 12017.5 7740.33 11548.1 8019C11078.8 8290.33 10525.1 8426 9887.13 8426ZM9887.13 7018C10246.5 7018 10536.1 6937.33 10756.1 6776C10983.5 6607.33 11152.1 6383.67 11262.1 6105C11372.1 5826.33 11427.1 5518.33 11427.1 5181C11427.1 4836.33 11372.1 4524.67 11262.1 4246C11152.1 3960 10983.5 3736.33 10756.1 3575C10536.1 3406.33 10246.5 3322 9887.13 3322C9535.13 3322 9245.47 3406.33 9018.13 3575C8790.8 3736.33 8622.13 3960 8512.13 4246C8402.13 4524.67 8347.13 4836.33 8347.13 5181C8347.13 5518.33 8402.13 5826.33 8512.13 6105C8622.13 6383.67 8790.8 6607.33 9018.13 6776C9245.47 6937.33 9535.13 7018 9887.13 7018ZM14147.9 2090H15720.9V3036C15801.6 2838 15918.9 2654.67 16072.9 2486C16234.2 2317.33 16443.2 2181.67 16699.9 2079C16963.9 1969 17286.6 1914 17667.9 1914C18063.9 1914 18415.9 1994.67 18723.9 2156C19031.9 2317.33 19273.9 2585 19449.9 2959C19625.9 3325.67 19713.9 3824.33 19713.9 4455V8250H18140.9V4598C18140.9 4356 18122.6 4136 18085.9 3938C18049.2 3732.67 17964.9 3571.33 17832.9 3454C17708.2 3336.67 17506.6 3278 17227.9 3278C17007.9 3278 16780.6 3340.33 16545.9 3465C16311.2 3589.67 16113.2 3795 15951.9 4081C15797.9 4359.67 15720.9 4744.67 15720.9 5236V8250H14147.9V2090ZM23596.1 8426C23016.8 8426 22518.1 8290.33 22100.1 8019C21689.5 7740.33 21374.1 7355.33 21154.1 6864C20934.1 6372.67 20824.1 5811.67 20824.1 5181C20824.1 4543 20934.1 3978.33 21154.1 3487C21374.1 2995.67 21689.5 2610.67 22100.1 2332C22518.1 2053.33 23016.8 1914 23596.1 1914C24006.8 1914 24355.1 1987.33 24641.1 2134C24934.5 2280.67 25172.8 2493.33 25356.1 2772V7579C25180.1 7843 24949.1 8052 24663.1 8206C24384.5 8352.67 24028.8 8426 23596.1 8426ZM23871.1 7018C24208.5 7018 24487.1 6937.33 24707.1 6776C24927.1 6607.33 25088.5 6383.67 25191.1 6105C25301.1 5826.33 25356.1 5518.33 25356.1 5181C25356.1 4836.33 25301.1 4524.67 25191.1 4246C25088.5 3960 24927.1 3736.33 24707.1 3575C24487.1 3406.33 24208.5 3322 23871.1 3322C23555.8 3322 23288.1 3406.33 23068.1 3575C22855.5 3736.33 22694.1 3960 22584.1 4246C22481.5 4524.67 22430.1 4836.33 22430.1 5181C22430.1 5518.33 22481.5 5826.33 22584.1 6105C22694.1 6383.67 22855.5 6607.33 23068.1 6776C23288.1 6937.33 23555.8 7018 23871.1 7018ZM25356.1 8250V-0.00041151H26929.1V8250H25356.1Z" fill="white"/>
</g>
<defs>
<filter id="filter0_d_1_2" x="0" y="0" width="26935.1" height="8434" filterUnits="userSpaceOnUse" color-interpolation-filters="sRGB">
<feFlood flood-opacity="0" result="BackgroundImageFix"/>
<feColorMatrix in="SourceAlpha" type="matrix" values="0 0 0 0 0 0 0 0 0 0 0 0 0 0 0 0 0 0 127 0" result="hardAlpha"/>
<feOffset dx="2" dy="4"/>
<feGaussianBlur stdDeviation="2"/>
<feComposite in2="hardAlpha" operator="out"/>
<feColorMatrix type="matrix" values="0 0 0 0 0 0 0 0 0 0 0 0 0 0 0 0 0 0 0.25 0"/>
<feBlend mode="normal" in2="BackgroundImageFix" result="effect1_dropShadow_1_2"/>
<feBlend mode="normal" in="SourceGraphic" in2="effect1_dropShadow_1_2" result="shape"/>
</filter>
</defs>
</svg>
