<svg width="45487" height="8434" viewBox="0 0 45487 8434" fill="none" xmlns="http://www.w3.org/2000/svg">
<g filter="url(#filter0_d_1_2)">
<path d="M2939 8250L948 550H2576L4457 8250H2939ZM5194 8250H3676L5557 550H7185L5194 8250ZM2.00002 550H1542V8250H2.00002V550ZM6591 550H8131V8250H6591V550ZM13334 4730H14907V8250H13334V4730ZM12245 1914C13117.7 1914 13777.7 2167 14225 2673C14679.7 3179 14907 3864.67 14907 4730H13334C13334 4466 13308.3 4227.67 13257 4015C13205.7 3795 13099.3 3619 12938 3487C12784 3355 12553 3289 12245 3289C11856.3 3289 11563 3388 11365 3586C11174.3 3776.67 11079 4000.33 11079 4257H9440C9440 3839 9550 3454 9770 3102C9990 2742.67 10309 2456.67 10727 2244C11145 2024 11651 1914 12245 1914ZM13488 4378L13719 5423C12853.7 5386.33 12230.3 5470.67 11849 5676C11475 5874 11288 6119.67 11288 6413C11288 6611 11361.3 6757.67 11508 6853C11662 6948.33 11838 6996 12036 6996C12226.7 6996 12421 6966.67 12619 6908C12824.3 6849.33 12993 6735.67 13125 6567C13264.3 6398.33 13334 6149 13334 5819L13631 6303C13631 6713.67 13554 7080.33 13400 7403C13246 7718.33 13026 7967.67 12740 8151C12461.3 8334.33 12124 8426 11728 8426C11324.7 8426 10965.3 8352.67 10650 8206C10342 8052 10096.3 7832 9913 7546C9737 7260 9649 6911.67 9649 6501C9649 6105 9726 5778.67 9880 5522C10041.3 5265.33 10254 5063.67 10518 4917C10789.3 4763 11090 4649.33 11420 4576C11757.3 4502.67 12102 4455 12454 4433C12813.3 4403.67 13158 4385.33 13488 4378ZM16231.9 2090H17804.9V3036C17885.6 2838 18002.9 2654.67 18156.9 2486C18318.2 2317.33 18527.2 2181.67 18783.9 2079C19047.9 1969 19370.6 1914 19751.9 1914C20147.9 1914 20499.9 1994.67 20807.9 2156C21115.9 2317.33 21357.9 2585 21533.9 2959C21709.9 3325.67 21797.9 3824.33 21797.9 4455V8250H20224.9V4598C20224.9 4356 20206.6 4136 20169.9 3938C20133.2 3732.67 20048.9 3571.33 19916.9 3454C19792.2 3336.67 19590.6 3278 19311.9 3278C19091.9 3278 18864.6 3340.33 18629.9 3465C18395.2 3589.67 18197.2 3795 18035.9 4081C17881.9 4359.67 17804.9 4744.67 17804.9 5236V8250H16231.9V2090ZM26890.6 4730H28463.6V8250H26890.6V4730ZM25801.6 1914C26674.3 1914 27334.3 2167 27781.6 2673C28236.3 3179 28463.6 3864.67 28463.6 4730H26890.6C26890.6 4466 26865 4227.67 26813.6 4015C26762.3 3795 26656 3619 26494.6 3487C26340.6 3355 26109.6 3289 25801.6 3289C25413 3289 25119.6 3388 24921.6 3586C24731 3776.67 24635.6 4000.33 24635.6 4257H22996.6C22996.6 3839 23106.6 3454 23326.6 3102C23546.6 2742.67 23865.6 2456.67 24283.6 2244C24701.6 2024 25207.6 1914 25801.6 1914ZM27044.6 4378L27275.6 5423C26410.3 5386.33 25787 5470.67 25405.6 5676C25031.6 5874 24844.6 6119.67 24844.6 6413C24844.6 6611 24918 6757.67 25064.6 6853C25218.6 6948.33 25394.6 6996 25592.6 6996C25783.3 6996 25977.6 6966.67 26175.6 6908C26381 6849.33 26549.6 6735.67 26681.6 6567C26821 6398.33 26890.6 6149 26890.6 5819L27187.6 6303C27187.6 6713.67 27110.6 7080.33 26956.6 7403C26802.6 7718.33 26582.6 7967.67 26296.6 8151C26018 8334.33 25680.6 8426 25284.6 8426C24881.3 8426 24522 8352.67 24206.6 8206C23898.6 8052 23653 7832 23469.6 7546C23293.6 7260 23205.6 6911.67 23205.6 6501C23205.6 6105 23282.6 5778.67 23436.6 5522C23598 5265.33 23810.6 5063.67 24074.6 4917C24346 4763 24646.6 4649.33 24976.6 4576C25314 4502.67 25658.6 4455 26010.6 4433C26370 4403.67 26714.6 4385.33 27044.6 4378ZM35585.8 5665C35585.8 6193 35464.8 6666 35222.8 7084C34980.8 7502 34643.5 7832 34210.8 8074C33778.1 8308.67 33272.1 8426 32692.8 8426C32054.8 8426 31501.1 8290.33 31031.8 8019C30562.5 7740.33 30195.8 7355.33 29931.8 6864C29675.1 6372.67 29546.8 5811.67 29546.8 5181C29546.8 4543 29675.1 3978.33 29931.8 3487C30195.8 2995.67 30562.5 2610.67 31031.8 2332C31501.1 2053.33 32054.8 1914 32692.8 1914C33250.1 1914 33745.1 2038.67 34177.8 2288C34610.5 2530 34947.8 2849 35189.8 3245C35439.1 3633.67 35563.8 4055.33 35563.8 4510H33902.8C33902.8 4312 33862.5 4125 33781.8 3949C33701.1 3773 33572.8 3630 33396.8 3520C33220.8 3402.67 32986.1 3344 32692.8 3344C32318.8 3344 32018.1 3424.67 31790.8 3586C31563.5 3747.33 31398.5 3967.33 31295.8 4246C31200.5 4524.67 31152.8 4836.33 31152.8 5181C31152.8 5518.33 31200.5 5826.33 31295.8 6105C31398.5 6376.33 31563.5 6592.67 31790.8 6754C32018.1 6915.33 32318.8 6996 32692.8 6996C32986.1 6996 33224.5 6933.67 33407.8 6809C33591.1 6684.33 33726.8 6523 33814.8 6325C33902.8 6119.67 33946.8 5899.67 33946.8 5665H35585.8ZM36717.8 -0.00016737H38290.8V8250H36717.8V-0.00016737ZM42543.4 8426C41905.4 8426 41351.7 8290.33 40882.4 8019C40413 7740.33 40046.4 7355.33 39782.4 6864C39525.7 6372.67 39397.4 5811.67 39397.4 5181C39397.4 4543 39525.7 3978.33 39782.4 3487C40046.4 2995.67 40413 2610.67 40882.4 2332C41351.7 2053.33 41905.4 1914 42543.4 1914C42961.4 1914 43357.4 1998.33 43731.4 2167C44105.4 2335.67 44428 2581.33 44699.4 2904C44970.7 3226.67 45168.7 3622.67 45293.4 4092C45418.1 4561.33 45436.4 5096.67 45348.4 5698H40288.4V4422H44281.4L43775.4 4719C43812 4506.33 43790 4293.67 43709.4 4081C43636 3861 43504 3681.33 43313.4 3542C43122.7 3395.33 42866 3322 42543.4 3322C42169.4 3322 41868.7 3406.33 41641.4 3575C41414 3736.33 41249 3960 41146.4 4246C41051 4524.67 41003.4 4836.33 41003.4 5181C41003.4 5518.33 41051 5826.33 41146.4 6105C41249 6383.67 41414 6607.33 41641.4 6776C41868.7 6937.33 42169.4 7018 42543.4 7018C42844 7018 43093.4 6948.33 43291.4 6809C43489.4 6669.67 43628.7 6497.33 43709.4 6292H45370.4C45282.4 6717.33 45110 7091.33 44853.4 7414C44596.7 7729.33 44270.4 7978.67 43874.4 8162C43485.7 8338 43042 8426 42543.4 8426Z" fill="white"/>
</g>
<defs>
<filter id="filter0_d_1_2" x="0" y="0" width="45486.4" height="8434" filterUnits="userSpaceOnUse" color-interpolation-filters="sRGB">
<feFlood flood-opacity="0" result="BackgroundImageFix"/>
<feColorMatrix in="SourceAlpha" type="matrix" values="0 0 0 0 0 0 0 0 0 0 0 0 0 0 0 0 0 0 127 0" result="hardAlpha"/>
<feOffset dx="2" dy="4"/>
<feGaussianBlur stdDeviation="2"/>
<feComposite in2="hardAlpha" operator="out"/>
<feColorMatrix type="matrix" values="0 0 0 0 0 0 0 0 0 0 0 0 0 0 0 0 0 0 0.25 0"/>
<feBlend mode="normal" in2="BackgroundImageFix" result="effect1_dropShadow_1_2"/>
<feBlend mode="normal" in="SourceGraphic" in2="effect1_dropShadow_1_2" result="shape"/>
</filter>
</defs>
</svg>
