<svg width="21757" height="3838" viewBox="0 0 21757 3838" fill="none" xmlns="http://www.w3.org/2000/svg">
<g filter="url(#filter0_d_1_2)">
<path d="M1337 3750L432 250H1172L2027 3750H1337ZM2362 3750H1672L2527 250H3267L2362 3750ZM2.00001 250H702V3750H2.00001V250ZM2997 250H3697V3750H2997V250ZM6062 2150H6777V3750H6062V2150ZM5567 870C5963.67 870 6263.67 985 6467 1215C6673.67 1445 6777 1756.67 6777 2150H6062C6062 2030 6050.33 1921.67 6027 1825C6003.67 1725 5955.33 1645 5882 1585C5812 1525 5707 1495 5567 1495C5390.33 1495 5257 1540 5167 1630C5080.33 1716.67 5037 1818.33 5037 1935H4292C4292 1745 4342 1570 4442 1410C4542 1246.67 4687 1116.67 4877 1020C5067 920 5297 870 5567 870ZM6132 1990L6237 2465C5843.67 2448.33 5560.33 2486.67 5387 2580C5217 2670 5132 2781.67 5132 2915C5132 3005 5165.33 3071.67 5232 3115C5302 3158.33 5382 3180 5472 3180C5558.67 3180 5647 3166.67 5737 3140C5830.33 3113.33 5907 3061.67 5967 2985C6030.33 2908.33 6062 2795 6062 2645L6197 2865C6197 3051.67 6162 3218.33 6092 3365C6022 3508.33 5922 3621.67 5792 3705C5665.33 3788.33 5512 3830 5332 3830C5148.67 3830 4985.33 3796.67 4842 3730C4702 3660 4590.33 3560 4507 3430C4427 3300 4387 3141.67 4387 2955C4387 2775 4422 2626.67 4492 2510C4565.33 2393.33 4662 2301.67 4782 2235C4905.33 2165 5042 2113.33 5192 2080C5345.33 2046.67 5502 2025 5662 2015C5825.33 2001.67 5982 1993.33 6132 1990ZM7379.23 950H8094.23V1380C8130.89 1290 8184.23 1206.67 8254.23 1130C8327.56 1053.33 8422.56 991.667 8539.23 945C8659.23 895 8805.89 870 8979.23 870C9159.23 870 9319.23 906.667 9459.23 980C9599.23 1053.33 9709.23 1175 9789.23 1345C9869.23 1511.67 9909.23 1738.33 9909.23 2025V3750H9194.23V2090C9194.23 1980 9185.89 1880 9169.23 1790C9152.56 1696.67 9114.23 1623.33 9054.23 1570C8997.56 1516.67 8905.89 1490 8779.23 1490C8679.23 1490 8575.89 1518.33 8469.23 1575C8362.56 1631.67 8272.56 1725 8199.23 1855C8129.23 1981.67 8094.23 2156.67 8094.23 2380V3750H7379.23V950ZM12224.1 2150H12939.1V3750H12224.1V2150ZM11729.1 870C12125.8 870 12425.8 985 12629.1 1215C12835.8 1445 12939.1 1756.67 12939.1 2150H12224.1C12224.1 2030 12212.4 1921.67 12189.1 1825C12165.8 1725 12117.4 1645 12044.1 1585C11974.1 1525 11869.1 1495 11729.1 1495C11552.4 1495 11419.1 1540 11329.1 1630C11242.4 1716.67 11199.1 1818.33 11199.1 1935H10454.1C10454.1 1745 10504.1 1570 10604.1 1410C10704.1 1246.67 10849.1 1116.67 11039.1 1020C11229.1 920 11459.1 870 11729.1 870ZM12294.1 1990L12399.1 2465C12005.8 2448.33 11722.4 2486.67 11549.1 2580C11379.1 2670 11294.1 2781.67 11294.1 2915C11294.1 3005 11327.4 3071.67 11394.1 3115C11464.1 3158.33 11544.1 3180 11634.1 3180C11720.8 3180 11809.1 3166.67 11899.1 3140C11992.4 3113.33 12069.1 3061.67 12129.1 2985C12192.4 2908.33 12224.1 2795 12224.1 2645L12359.1 2865C12359.1 3051.67 12324.1 3218.33 12254.1 3365C12184.1 3508.33 12084.1 3621.67 11954.1 3705C11827.4 3788.33 11674.1 3830 11494.1 3830C11310.8 3830 11147.4 3796.67 11004.1 3730C10864.1 3660 10752.4 3560 10669.1 3430C10589.1 3300 10549.1 3141.67 10549.1 2955C10549.1 2775 10584.1 2626.67 10654.1 2510C10727.4 2393.33 10824.1 2301.67 10944.1 2235C11067.4 2165 11204.1 2113.33 11354.1 2080C11507.4 2046.67 11664.1 2025 11824.1 2015C11987.4 2001.67 12144.1 1993.33 12294.1 1990ZM16176.5 2575C16176.5 2815 16121.5 3030 16011.5 3220C15901.5 3410 15748.1 3560 15551.5 3670C15354.8 3776.67 15124.8 3830 14861.5 3830C14571.5 3830 14319.8 3768.33 14106.5 3645C13893.1 3518.33 13726.5 3343.33 13606.5 3120C13489.8 2896.67 13431.5 2641.67 13431.5 2355C13431.5 2065 13489.8 1808.33 13606.5 1585C13726.5 1361.67 13893.1 1186.67 14106.5 1060C14319.8 933.334 14571.5 870 14861.5 870C15114.8 870 15339.8 926.667 15536.5 1040C15733.1 1150 15886.5 1295 15996.5 1475C16109.8 1651.67 16166.5 1843.33 16166.5 2050H15411.5C15411.5 1960 15393.1 1875 15356.5 1795C15319.8 1715 15261.5 1650 15181.5 1600C15101.5 1546.67 14994.8 1520 14861.5 1520C14691.5 1520 14554.8 1556.67 14451.5 1630C14348.1 1703.33 14273.1 1803.33 14226.5 1930C14183.1 2056.67 14161.5 2198.33 14161.5 2355C14161.5 2508.33 14183.1 2648.33 14226.5 2775C14273.1 2898.33 14348.1 2996.67 14451.5 3070C14554.8 3143.33 14691.5 3180 14861.5 3180C14994.8 3180 15103.1 3151.67 15186.5 3095C15269.8 3038.33 15331.5 2965 15371.5 2875C15411.5 2781.67 15431.5 2681.67 15431.5 2575H16176.5ZM16691 0.000190258H17406V3750H16691V0.000190258ZM19339 3830C19049 3830 18797.3 3768.33 18584 3645C18370.7 3518.33 18204 3343.33 18084 3120C17967.3 2896.67 17909 2641.67 17909 2355C17909 2065 17967.3 1808.33 18084 1585C18204 1361.67 18370.7 1186.67 18584 1060C18797.3 933.334 19049 870 19339 870C19529 870 19709 908.334 19879 985C20049 1061.67 20195.7 1173.33 20319 1320C20442.3 1466.67 20532.3 1646.67 20589 1860C20645.7 2073.33 20654 2316.67 20614 2590H18314V2010H20129L19899 2145C19915.7 2048.33 19905.7 1951.67 19869 1855C19835.7 1755 19775.7 1673.33 19689 1610C19602.3 1543.33 19485.7 1510 19339 1510C19169 1510 19032.3 1548.33 18929 1625C18825.7 1698.33 18750.7 1800 18704 1930C18660.7 2056.67 18639 2198.33 18639 2355C18639 2508.33 18660.7 2648.33 18704 2775C18750.7 2901.67 18825.7 3003.33 18929 3080C19032.3 3153.33 19169 3190 19339 3190C19475.7 3190 19589 3158.33 19679 3095C19769 3031.67 19832.3 2953.33 19869 2860H20624C20584 3053.33 20505.7 3223.33 20389 3370C20272.3 3513.33 20124 3626.67 19944 3710C19767.3 3790 19565.7 3830 19339 3830ZM20985.8 2985H21750.8V3750H20985.8V2985Z" fill="#C1FF72"/>
</g>
<defs>
<filter id="filter0_d_1_2" x="0" y="0" width="21756.8" height="3838" filterUnits="userSpaceOnUse" color-interpolation-filters="sRGB">
<feFlood flood-opacity="0" result="BackgroundImageFix"/>
<feColorMatrix in="SourceAlpha" type="matrix" values="0 0 0 0 0 0 0 0 0 0 0 0 0 0 0 0 0 0 127 0" result="hardAlpha"/>
<feOffset dx="2" dy="4"/>
<feGaussianBlur stdDeviation="2"/>
<feComposite in2="hardAlpha" operator="out"/>
<feColorMatrix type="matrix" values="0 0 0 0 0 0 0 0 0 0 0 0 0 0 0 0 0 0 0.25 0"/>
<feBlend mode="normal" in2="BackgroundImageFix" result="effect1_dropShadow_1_2"/>
<feBlend mode="normal" in="SourceGraphic" in2="effect1_dropShadow_1_2" result="shape"/>
</filter>
</defs>
</svg>
